<?xml version="1.0" standalone="no"?>
<!DOCTYPE svg PUBLIC "-//W3C//DTD SVG 1.1//EN" "http://www.w3.org/Graphics/SVG/1.1/DTD/svg11.dtd">
<svg width="240mm" height="344mm" viewBox="-127 -223 240 344" xmlns="http://www.w3.org/2000/svg" version="1.1">
<title>OpenSCAD Model</title>
<path d="
M -57.5,-164.5 L -57.5,-168.001 L -52.5,-168.001 L -52.5,-164.5 L -47.5,-164.5 L -47.5,-168.001
 L -42.5,-168.001 L -42.5,-164.5 L -37.5,-164.5 L -37.5,-168.001 L -32.5,-168.001 L -32.5,-164.5
 L -27.5,-164.5 L -27.5,-168.001 L -22.5,-168.001 L -22.5,-164.5 L -17.5,-164.5 L -17.5,-168.001
 L -12.5,-168.001 L -12.5,-164.5 L -7.5,-164.5 L -7.5,-168.001 L -2.5,-168.001 L -2.5,-164.5
 L 2.5,-164.5 L 2.5,-168.001 L 7.5,-168.001 L 7.5,-164.5 L 12.5,-164.5 L 12.5,-168.001
 L 17.5,-168.001 L 17.5,-164.5 L 22.5,-164.5 L 22.5,-168.001 L 27.5,-168.001 L 27.5,-164.5
 L 32.5,-164.5 L 32.5,-168.001 L 37.5,-168.001 L 37.5,-164.5 L 42.5,-164.5 L 42.5,-168.001
 L 47.5,-168.001 L 47.5,-164.5 L 52.5,-164.5 L 52.5,-168.001 L 57.5,-168.001 L 57.5,-164.5
 L 59,-156.5 L 65,-156.5 L 65,-171 L 61.5,-171 L 61.5,-176 L 65,-176
 L 65,-181 L 61.5,-181 L 61.5,-186 L 65,-186 L 65,-191 L 61.5,-191
 L 61.5,-196 L 65,-196 L 65,-201 L 61.5,-201 L 61.5,-206 L 65,-206
 L 65,-211 L 61.5,-211 L 61.5,-216 L 65,-216 L 65,-222.5 L 57.5,-222.5
 L 57.5,-219 L 52.5,-219 L 52.5,-222.5 L 47.5,-222.5 L 47.5,-219 L 42.5,-219
 L 42.5,-222.5 L 37.5,-222.5 L 37.5,-219 L 32.5,-219 L 32.5,-222.5 L 27.5,-222.5
 L 27.5,-219 L 22.5,-219 L 22.5,-222.5 L 17.5,-222.5 L 17.5,-219 L 12.5,-219
 L 12.5,-222.5 L 7.5,-222.5 L 7.5,-219 L 2.5,-219 L 2.5,-222.5 L -2.5,-222.5
 L -2.5,-219 L -7.5,-219 L -7.5,-222.5 L -12.5,-222.5 L -12.5,-219 L -17.5,-219
 L -17.5,-222.5 L -22.5,-222.5 L -22.5,-219 L -27.5,-219 L -27.5,-222.5 L -32.5,-222.5
 L -32.5,-219 L -37.5,-219 L -37.5,-222.5 L -42.5,-222.5 L -42.5,-219 L -47.5,-219
 L -47.5,-222.5 L -52.5,-222.5 L -52.5,-219 L -57.5,-219 L -57.5,-222.5 L -65,-222.5
 L -65,-216 L -61.499,-216 L -61.499,-211 L -65,-211 L -65,-206 L -61.499,-206
 L -61.499,-201 L -65,-201 L -65,-196 L -61.499,-196 L -61.499,-191 L -65,-191
 L -65,-186 L -61.499,-186 L -61.499,-181 L -65,-181 L -65,-176 L -61.499,-176
 L -61.499,-171 L -65,-171 L -65,-156.5 L -59,-156.5 z
M -45.2944,-201.907 L -45.5881,-201.929 L -45.8804,-201.965 L -46.1705,-202.015 L -46.4579,-202.08 L -46.7417,-202.158
 L -47.0213,-202.251 L -47.2961,-202.357 L -47.5653,-202.476 L -47.8284,-202.608 L -48.0846,-202.754 L -48.3334,-202.911
 L -48.5742,-203.081 L -48.8064,-203.262 L -49.0294,-203.454 L -49.2426,-203.657 L -49.4457,-203.871 L -49.6381,-204.094
 L -49.8192,-204.326 L -49.9888,-204.567 L -50.1464,-204.815 L -50.2915,-205.072 L -50.4239,-205.335 L -50.5433,-205.604
 L -50.6493,-205.879 L -50.7416,-206.158 L -50.8202,-206.442 L -50.8847,-206.729 L -50.9351,-207.02 L -50.9711,-207.312
 L -50.9928,-207.606 L -51,-207.9 L -50.9928,-208.194 L -50.9711,-208.488 L -50.9351,-208.78 L -50.8847,-209.071
 L -50.8202,-209.358 L -50.7416,-209.642 L -50.6493,-209.921 L -50.5433,-210.196 L -50.4239,-210.465 L -50.2915,-210.728
 L -50.1464,-210.985 L -49.9888,-211.233 L -49.8192,-211.474 L -49.6381,-211.706 L -49.4457,-211.929 L -49.2426,-212.143
 L -49.0294,-212.346 L -48.8064,-212.538 L -48.5742,-212.719 L -48.3334,-212.889 L -48.0846,-213.046 L -47.8284,-213.192
 L -47.5653,-213.324 L -47.2961,-213.443 L -47.0213,-213.549 L -46.7417,-213.642 L -46.4579,-213.72 L -46.1705,-213.785
 L -45.8804,-213.835 L -45.5881,-213.871 L -45.2944,-213.893 L -45,-213.9 L -44.7056,-213.893 L -44.4119,-213.871
 L -44.1196,-213.835 L -43.8295,-213.785 L -43.5421,-213.72 L -43.2583,-213.642 L -42.9787,-213.549 L -42.7039,-213.443
 L -42.4347,-213.324 L -42.1716,-213.192 L -41.9154,-213.046 L -41.6666,-212.889 L -41.4258,-212.719 L -41.1936,-212.538
 L -40.9706,-212.346 L -40.7574,-212.143 L -40.5543,-211.929 L -40.3619,-211.706 L -40.1808,-211.474 L -40.0112,-211.233
 L -39.8536,-210.985 L -39.7085,-210.728 L -39.5761,-210.465 L -39.4567,-210.196 L -39.3507,-209.921 L -39.2584,-209.642
 L -39.1798,-209.358 L -39.1153,-209.071 L -39.0649,-208.78 L -39.0289,-208.488 L -39.0072,-208.194 L -39,-207.9
 L -39.0072,-207.606 L -39.0289,-207.312 L -39.0649,-207.02 L -39.1153,-206.729 L -39.1798,-206.442 L -39.2584,-206.158
 L -39.3507,-205.879 L -39.4567,-205.604 L -39.5761,-205.335 L -39.7085,-205.072 L -39.8536,-204.815 L -40.0112,-204.567
 L -40.1808,-204.326 L -40.3619,-204.094 L -40.5543,-203.871 L -40.7574,-203.657 L -40.9706,-203.454 L -41.1936,-203.262
 L -41.4258,-203.081 L -41.6666,-202.911 L -41.9154,-202.754 L -42.1716,-202.608 L -42.4347,-202.476 L -42.7039,-202.357
 L -42.9787,-202.251 L -43.2583,-202.158 L -43.5421,-202.08 L -43.8295,-202.015 L -44.1196,-201.965 L -44.4119,-201.929
 L -44.7056,-201.907 L -45,-201.9 z
M -21.5444,-201.907 L -21.8381,-201.929 L -22.1304,-201.965 L -22.4205,-202.015 L -22.7079,-202.08 L -22.9917,-202.158
 L -23.2713,-202.251 L -23.5461,-202.357 L -23.8153,-202.476 L -24.0784,-202.608 L -24.3346,-202.754 L -24.5834,-202.911
 L -24.8242,-203.081 L -25.0564,-203.262 L -25.2794,-203.454 L -25.4926,-203.657 L -25.6957,-203.871 L -25.8881,-204.094
 L -26.0692,-204.326 L -26.2388,-204.567 L -26.3964,-204.815 L -26.5415,-205.072 L -26.6739,-205.335 L -26.7933,-205.604
 L -26.8993,-205.879 L -26.9916,-206.158 L -27.0702,-206.442 L -27.1347,-206.729 L -27.1851,-207.02 L -27.2211,-207.312
 L -27.2428,-207.606 L -27.25,-207.9 L -27.2428,-208.194 L -27.2211,-208.488 L -27.1851,-208.78 L -27.1347,-209.071
 L -27.0702,-209.358 L -26.9916,-209.642 L -26.8993,-209.921 L -26.7933,-210.196 L -26.6739,-210.465 L -26.5415,-210.728
 L -26.3964,-210.985 L -26.2388,-211.233 L -26.0692,-211.474 L -25.8881,-211.706 L -25.6957,-211.929 L -25.4926,-212.143
 L -25.2794,-212.346 L -25.0564,-212.538 L -24.8242,-212.719 L -24.5834,-212.889 L -24.3346,-213.046 L -24.0784,-213.192
 L -23.8153,-213.324 L -23.5461,-213.443 L -23.2713,-213.549 L -22.9917,-213.642 L -22.7079,-213.72 L -22.4205,-213.785
 L -22.1304,-213.835 L -21.8381,-213.871 L -21.5444,-213.893 L -21.25,-213.9 L -20.9556,-213.893 L -20.6619,-213.871
 L -20.3696,-213.835 L -20.0795,-213.785 L -19.7921,-213.72 L -19.5083,-213.642 L -19.2287,-213.549 L -18.9539,-213.443
 L -18.6847,-213.324 L -18.4216,-213.192 L -18.1654,-213.046 L -17.9166,-212.889 L -17.6758,-212.719 L -17.4436,-212.538
 L -17.2206,-212.346 L -17.0074,-212.143 L -16.8043,-211.929 L -16.6119,-211.706 L -16.4308,-211.474 L -16.2612,-211.233
 L -16.1036,-210.985 L -15.9585,-210.728 L -15.8261,-210.465 L -15.7067,-210.196 L -15.6007,-209.921 L -15.5084,-209.642
 L -15.4298,-209.358 L -15.3653,-209.071 L -15.3149,-208.78 L -15.2789,-208.488 L -15.2572,-208.194 L -15.25,-207.9
 L -15.2572,-207.606 L -15.2789,-207.312 L -15.3149,-207.02 L -15.3653,-206.729 L -15.4298,-206.442 L -15.5084,-206.158
 L -15.6007,-205.879 L -15.7067,-205.604 L -15.8261,-205.335 L -15.9585,-205.072 L -16.1036,-204.815 L -16.2612,-204.567
 L -16.4308,-204.326 L -16.6119,-204.094 L -16.8043,-203.871 L -17.0074,-203.657 L -17.2206,-203.454 L -17.4436,-203.262
 L -17.6758,-203.081 L -17.9166,-202.911 L -18.1654,-202.754 L -18.4216,-202.608 L -18.6847,-202.476 L -18.9539,-202.357
 L -19.2287,-202.251 L -19.5083,-202.158 L -19.7921,-202.08 L -20.0795,-202.015 L -20.3696,-201.965 L -20.6619,-201.929
 L -20.9556,-201.907 L -21.25,-201.9 z
M -45.8343,-192.8 L -48.2688,-192.8 L -48.2688,-194.455 L -45.8343,-194.455 L -45.8343,-196.896 L -44.1797,-196.896
 L -44.1797,-194.455 L -41.7317,-194.455 L -41.7317,-192.8 L -44.1797,-192.8 L -44.1797,-190.373 L -45.8343,-190.373
 z
M -24.8036,-194.478 L -17.6969,-194.478 L -17.6969,-192.789 L -24.8036,-192.789 z
M -53.5,-182 L -53.4904,-182.196 L -53.4616,-182.39 L -53.4139,-182.581 L -53.3478,-182.765 L -53.2638,-182.943
 L -53.1629,-183.111 L -53.046,-183.269 L -52.9142,-183.414 L -52.7688,-183.546 L -52.6111,-183.663 L -52.4428,-183.764
 L -52.2654,-183.848 L -52.0806,-183.914 L -51.8902,-183.962 L -51.696,-183.99 L -51.5,-184 L -43.5,-184
 L -43.304,-183.99 L -43.1098,-183.962 L -42.9194,-183.914 L -42.7346,-183.848 L -42.5572,-183.764 L -42.3889,-183.663
 L -42.2312,-183.546 L -42.0858,-183.414 L -41.954,-183.269 L -41.8371,-183.111 L -41.7362,-182.943 L -41.6522,-182.765
 L -41.5861,-182.581 L -41.5384,-182.39 L -41.5096,-182.196 L -41.5,-182 L -41.5,-173.5 L -53.5,-173.5
 z
M -68.951,-154.877 L -68.9025,-154.885 L -68.8549,-154.897 L -68.8087,-154.913 L -68.7643,-154.934 L -68.7222,-154.959
 L -68.6828,-154.988 L -68.6464,-155.021 L -68.6135,-155.058 L -68.5843,-155.097 L -68.559,-155.139 L -68.5381,-155.184
 L -68.5215,-155.23 L -68.5096,-155.277 L -68.5024,-155.326 L -68.5,-155.375 L -68.5,-205.875 L -68.5024,-205.924
 L -68.5096,-205.973 L -68.5215,-206.02 L -68.5381,-206.066 L -68.559,-206.111 L -68.5843,-206.153 L -68.6135,-206.192
 L -68.6464,-206.229 L -68.6828,-206.262 L -68.7222,-206.291 L -68.7643,-206.316 L -68.8087,-206.337 L -68.8549,-206.353
 L -68.9025,-206.365 L -68.951,-206.373 L -69,-206.375 L -89,-206.375 L -89.049,-206.373 L -89.0975,-206.365
 L -89.1451,-206.353 L -89.1913,-206.337 L -89.2357,-206.316 L -89.2778,-206.291 L -89.3172,-206.262 L -89.3536,-206.229
 L -89.3865,-206.192 L -89.4157,-206.153 L -89.441,-206.111 L -89.4619,-206.066 L -89.4785,-206.02 L -89.4904,-205.973
 L -89.4976,-205.924 L -89.5,-205.875 L -89.5,-155.375 L -89.4976,-155.326 L -89.4904,-155.277 L -89.4785,-155.23
 L -89.4619,-155.184 L -89.441,-155.139 L -89.4157,-155.097 L -89.3865,-155.058 L -89.3536,-155.021 L -89.3172,-154.988
 L -89.2778,-154.959 L -89.2357,-154.934 L -89.1913,-154.913 L -89.1451,-154.897 L -89.0975,-154.885 L -89.049,-154.877
 L -89,-154.875 L -69,-154.875 z
M -93.451,-159.627 L -93.4025,-159.635 L -93.3549,-159.647 L -93.3087,-159.663 L -93.2643,-159.684 L -93.2222,-159.709
 L -93.1828,-159.738 L -93.1464,-159.771 L -93.1135,-159.808 L -93.0843,-159.847 L -93.059,-159.889 L -93.0381,-159.934
 L -93.0215,-159.98 L -93.0096,-160.027 L -93.0024,-160.076 L -93,-160.125 L -93,-179.875 L -93.0024,-179.924
 L -93.0096,-179.973 L -93.0215,-180.02 L -93.0381,-180.066 L -93.059,-180.111 L -93.0843,-180.153 L -93.1135,-180.192
 L -93.1464,-180.229 L -93.1828,-180.262 L -93.2222,-180.291 L -93.2643,-180.316 L -93.3087,-180.337 L -93.3549,-180.353
 L -93.4025,-180.365 L -93.451,-180.373 L -93.5,-180.375 L -112.25,-180.375 L -112.299,-180.373 L -112.348,-180.365
 L -112.395,-180.353 L -112.441,-180.337 L -112.486,-180.316 L -112.528,-180.291 L -112.567,-180.262 L -112.604,-180.229
 L -112.637,-180.192 L -112.666,-180.153 L -112.691,-180.111 L -112.712,-180.066 L -112.728,-180.02 L -112.74,-179.973
 L -112.748,-179.924 L -112.75,-179.875 L -112.75,-160.125 L -112.748,-160.076 L -112.74,-160.027 L -112.728,-159.98
 L -112.712,-159.934 L -112.691,-159.889 L -112.666,-159.847 L -112.637,-159.808 L -112.604,-159.771 L -112.567,-159.738
 L -112.528,-159.709 L -112.486,-159.684 L -112.441,-159.663 L -112.395,-159.647 L -112.348,-159.635 L -112.299,-159.627
 L -112.25,-159.625 L -93.5,-159.625 z
M -52.5,-58.001 L -47.5,-58.001 L -47.5,-54.5 L -42.5,-54.5 L -42.5,-58.001 L -37.5,-58.001
 L -37.5,-54.5 L -32.5,-54.5 L -32.5,-58.001 L -27.5,-58.001 L -27.5,-54.5 L -22.5,-54.5
 L -22.5,-58.001 L -17.5,-58.001 L -17.5,-54.5 L -12.5,-54.5 L -12.5,-58.001 L -7.5,-58.001
 L -7.5,-54.5 L -2.5,-54.5 L -2.5,-58.001 L 2.5,-58.001 L 2.5,-54.5 L 7.5,-54.5
 L 7.5,-58.001 L 12.5,-58.001 L 12.5,-54.5 L 17.5,-54.5 L 17.5,-58.001 L 22.5,-58.001
 L 22.5,-54.5 L 27.5,-54.5 L 27.5,-58.001 L 32.5,-58.001 L 32.5,-54.5 L 37.5,-54.5
 L 37.5,-58.001 L 42.5,-58.001 L 42.5,-54.5 L 47.5,-54.5 L 47.5,-58.001 L 52.5,-58.001
 L 52.5,-54.5 L 57.5,-54.5 L 57.5,-58.001 L 65,-58.001 L 65,-63 L 61.5,-63
 L 61.5,-68 L 65,-68 L 65,-73 L 61.5,-73 L 61.5,-78 L 65,-78
 L 65,-83 L 61.5,-83 L 61.5,-88 L 65,-88 L 65,-93 L 61.5,-93
 L 61.5,-98 L 65,-98 L 65,-103 L 61.5,-103 L 61.5,-108 L 65,-108
 L 65,-113 L 61.5,-113 L 61.5,-118 L 65,-118 L 65,-123 L 61.5,-123
 L 61.5,-128 L 65,-128 L 65,-133 L 61.5,-133 L 61.5,-138 L 65,-138
 L 65,-143 L 61.5,-143 L 61.5,-148 L 65,-148 L 65,-153 L 57.5,-153
 L 57.5,-156.5 L 52.5,-156.5 L 52.5,-153 L 47.5,-153 L 47.5,-156.5 L 42.5,-156.5
 L 42.5,-153 L 37.5,-153 L 37.5,-156.5 L 32.5,-156.5 L 32.5,-153 L 27.5,-153
 L 27.5,-156.5 L 22.5,-156.5 L 22.5,-153 L 17.5,-153 L 17.5,-156.5 L 12.5,-156.5
 L 12.5,-153 L 7.5,-153 L 7.5,-156.5 L 2.5,-156.5 L 2.5,-153 L -2.5,-153
 L -2.5,-156.5 L -7.5,-156.5 L -7.5,-153 L -12.5,-153 L -12.5,-156.5 L -17.5,-156.5
 L -17.5,-153 L -22.5,-153 L -22.5,-156.5 L -27.5,-156.5 L -27.5,-153 L -32.5,-153
 L -32.5,-156.5 L -37.5,-156.5 L -37.5,-153 L -42.5,-153 L -42.5,-156.5 L -47.5,-156.5
 L -47.5,-153 L -52.5,-153 L -52.5,-156.5 L -57.5,-156.5 L -57.5,-153 L -65,-153
 L -65,-148 L -61.499,-148 L -61.499,-143 L -65,-143 L -65,-138 L -61.499,-138
 L -61.499,-133 L -65,-133 L -65,-128 L -61.499,-128 L -61.499,-123 L -65,-123
 L -65,-118 L -61.499,-118 L -61.499,-113 L -65,-113 L -65,-108 L -61.499,-108
 L -61.499,-103 L -65,-103 L -65,-98 L -61.499,-98 L -61.499,-93 L -65,-93
 L -65,-88 L -61.499,-88 L -61.499,-83 L -65,-83 L -65,-78 L -61.499,-78
 L -61.499,-73 L -65,-73 L -65,-68 L -61.499,-68 L -61.499,-63 L -65,-63
 L -65,-58.001 L -57.5,-58.001 L -57.5,-54.5 L -52.5,-54.5 z
M -56.9624,-143.809 L -57.2626,-143.9 L -57.5392,-144.048 L -57.7816,-144.247 L -57.9806,-144.489 L -58.1285,-144.766
 L -58.2195,-145.066 L -58.2503,-145.378 L -58.2195,-145.69 L -58.1285,-145.991 L -57.9806,-146.267 L -57.7816,-146.51
 L -57.5392,-146.709 L -57.2626,-146.857 L -56.9624,-146.948 L -56.6503,-146.978 L -56.3381,-146.948 L -56.038,-146.857
 L -55.7613,-146.709 L -55.5189,-146.51 L -55.3199,-146.267 L -55.1721,-145.991 L -55.081,-145.69 L -55.0503,-145.378
 L -55.081,-145.066 L -55.1721,-144.766 L -55.3199,-144.489 L -55.5189,-144.247 L -55.7613,-144.048 L -56.038,-143.9
 L -56.3381,-143.809 L -56.6503,-143.778 z
M 56.3381,-143.809 L 56.038,-143.9 L 55.7613,-144.048 L 55.5189,-144.247 L 55.3199,-144.489 L 55.1721,-144.766
 L 55.081,-145.066 L 55.0503,-145.378 L 55.081,-145.69 L 55.1721,-145.991 L 55.3199,-146.267 L 55.5189,-146.51
 L 55.7613,-146.709 L 56.038,-146.857 L 56.3381,-146.948 L 56.6503,-146.978 L 56.9624,-146.948 L 57.2626,-146.857
 L 57.5392,-146.709 L 57.7816,-146.51 L 57.9806,-146.267 L 58.1285,-145.991 L 58.2195,-145.69 L 58.2503,-145.378
 L 58.2195,-145.066 L 58.1285,-144.766 L 57.9806,-144.489 L 57.7816,-144.247 L 57.5392,-144.048 L 57.2626,-143.9
 L 56.9624,-143.809 L 56.6503,-143.778 z
M -0.736015,-65.0181 L -1.47026,-65.0722 L -2.20096,-65.1624 L -2.92635,-65.2882 L -3.6447,-65.4495 L -4.35427,-65.6459
 L -5.05335,-65.8768 L -5.74025,-66.1418 L -6.41333,-66.4402 L -7.07095,-66.7712 L -7.71154,-67.1341 L -8.33355,-67.528
 L -8.93549,-67.9519 L -9.5159,-68.4048 L -10.0734,-68.8857 L -10.6066,-69.3934 L -11.1143,-69.9266 L -11.5952,-70.4841
 L -12.0481,-71.0645 L -12.472,-71.6664 L -12.8659,-72.2885 L -13.2288,-72.929 L -13.5598,-73.5867 L -13.8582,-74.2597
 L -14.1232,-74.9467 L -14.3541,-75.6457 L -14.5505,-76.3553 L -14.7118,-77.0736 L -14.8376,-77.799 L -14.9278,-78.5297
 L -14.9819,-79.264 L -15,-80 L -14.9819,-80.736 L -14.9278,-81.4703 L -14.8376,-82.201 L -14.7118,-82.9264
 L -14.5505,-83.6447 L -14.3541,-84.3543 L -14.1232,-85.0533 L -13.8582,-85.7403 L -13.5598,-86.4133 L -13.2288,-87.071
 L -12.8659,-87.7115 L -12.472,-88.3336 L -12.0481,-88.9355 L -11.5952,-89.5159 L -11.1143,-90.0734 L -10.6066,-90.6066
 L -10.0734,-91.1143 L -9.5159,-91.5952 L -8.93549,-92.0481 L -8.33355,-92.472 L -7.71154,-92.8659 L -7.07095,-93.2288
 L -6.41333,-93.5598 L -5.74025,-93.8582 L -5.05335,-94.1232 L -4.35427,-94.3541 L -3.6447,-94.5505 L -2.92635,-94.7118
 L -2.20096,-94.8376 L -1.47026,-94.9278 L -0.736015,-94.9819 L 0,-95 L 0.736015,-94.9819 L 1.47026,-94.9278
 L 2.20096,-94.8376 L 2.92635,-94.7118 L 3.6447,-94.5505 L 4.35427,-94.3541 L 5.05335,-94.1232 L 5.74025,-93.8582
 L 6.41333,-93.5598 L 7.07095,-93.2288 L 7.71154,-92.8659 L 8.33355,-92.472 L 8.93549,-92.0481 L 9.5159,-91.5952
 L 10.0734,-91.1143 L 10.6066,-90.6066 L 11.1143,-90.0734 L 11.5952,-89.5159 L 12.0481,-88.9355 L 12.472,-88.3336
 L 12.8659,-87.7115 L 13.2288,-87.071 L 13.5598,-86.4133 L 13.8582,-85.7403 L 14.1232,-85.0533 L 14.3541,-84.3543
 L 14.5505,-83.6447 L 14.7118,-82.9264 L 14.8376,-82.201 L 14.9278,-81.4703 L 14.9819,-80.736 L 15,-80
 L 14.9819,-79.264 L 14.9278,-78.5297 L 14.8376,-77.799 L 14.7118,-77.0736 L 14.5505,-76.3553 L 14.3541,-75.6457
 L 14.1232,-74.9467 L 13.8582,-74.2597 L 13.5598,-73.5867 L 13.2288,-72.929 L 12.8659,-72.2885 L 12.472,-71.6664
 L 12.0481,-71.0645 L 11.5952,-70.4841 L 11.1143,-69.9266 L 10.6066,-69.3934 L 10.0734,-68.8857 L 9.5159,-68.4048
 L 8.93549,-67.9519 L 8.33355,-67.528 L 7.71154,-67.1341 L 7.07095,-66.7712 L 6.41333,-66.4402 L 5.74025,-66.1418
 L 5.05335,-65.8768 L 4.35427,-65.6459 L 3.6447,-65.4495 L 2.92635,-65.2882 L 2.20096,-65.1624 L 1.47026,-65.0722
 L 0.736015,-65.0181 L 0,-65 z
M -56.9624,-64.0524 L -57.2626,-64.1434 L -57.5392,-64.2913 L -57.7816,-64.4903 L -57.9806,-64.7327 L -58.1285,-65.0094
 L -58.2195,-65.3095 L -58.2503,-65.6217 L -58.2195,-65.9338 L -58.1285,-66.2339 L -57.9806,-66.5106 L -57.7816,-66.753
 L -57.5392,-66.952 L -57.2626,-67.0999 L -56.9624,-67.1909 L -56.6503,-67.2217 L -56.3381,-67.1909 L -56.038,-67.0999
 L -55.7613,-66.952 L -55.5189,-66.753 L -55.3199,-66.5106 L -55.1721,-66.2339 L -55.081,-65.9338 L -55.0503,-65.6217
 L -55.081,-65.3095 L -55.1721,-65.0094 L -55.3199,-64.7327 L -55.5189,-64.4903 L -55.7613,-64.2913 L -56.038,-64.1434
 L -56.3381,-64.0524 L -56.6503,-64.0217 z
M 56.3381,-64.0524 L 56.038,-64.1434 L 55.7613,-64.2913 L 55.5189,-64.4903 L 55.3199,-64.7327 L 55.1721,-65.0094
 L 55.081,-65.3095 L 55.0503,-65.6217 L 55.081,-65.9338 L 55.1721,-66.2339 L 55.3199,-66.5106 L 55.5189,-66.753
 L 55.7613,-66.952 L 56.038,-67.0999 L 56.3381,-67.1909 L 56.6503,-67.2217 L 56.9624,-67.1909 L 57.2626,-67.0999
 L 57.5392,-66.952 L 57.7816,-66.753 L 57.9806,-66.5106 L 58.1285,-66.2339 L 58.2195,-65.9338 L 58.2503,-65.6217
 L 58.2195,-65.3095 L 58.1285,-65.0094 L 57.9806,-64.7327 L 57.7816,-64.4903 L 57.5392,-64.2913 L 57.2626,-64.1434
 L 56.9624,-64.0524 L 56.6503,-64.0217 z
M 85.5142,-59.7524 L 85.5628,-59.7596 L 85.6104,-59.7715 L 85.6566,-59.7881 L 85.7009,-59.809 L 85.743,-59.8343
 L 85.7824,-59.8635 L 85.8188,-59.8964 L 85.8517,-59.9328 L 85.881,-59.9722 L 85.9062,-60.0143 L 85.9272,-60.0587
 L 85.9437,-60.1049 L 85.9556,-60.1525 L 85.9628,-60.201 L 85.9652,-60.25 L 85.9652,-150.75 L 85.9628,-150.799
 L 85.9556,-150.848 L 85.9437,-150.895 L 85.9272,-150.941 L 85.9062,-150.986 L 85.881,-151.028 L 85.8517,-151.067
 L 85.8188,-151.104 L 85.7824,-151.137 L 85.743,-151.166 L 85.7009,-151.191 L 85.6566,-151.212 L 85.6104,-151.228
 L 85.5628,-151.24 L 85.5142,-151.248 L 85.4652,-151.25 L 76.6791,-151.25 L 76.6301,-151.248 L 76.5816,-151.24
 L 76.534,-151.228 L 76.4878,-151.212 L 76.4434,-151.191 L 76.4013,-151.166 L 76.3619,-151.137 L 76.3256,-151.104
 L 76.2926,-151.067 L 76.2634,-151.028 L 76.2382,-150.986 L 76.2172,-150.941 L 76.2007,-150.895 L 76.1887,-150.848
 L 76.1815,-150.799 L 76.1791,-150.75 L 76.1791,-147.878 L 72.6791,-147.878 L 72.6791,-142.878 L 76.1791,-142.878
 L 76.1791,-108 L 72.6791,-108 L 72.6791,-103 L 76.1791,-103 L 76.1791,-68.1217 L 72.6791,-68.1217
 L 72.6791,-63.1217 L 76.1791,-63.1217 L 76.1791,-60.25 L 76.1815,-60.201 L 76.1887,-60.1525 L 76.2007,-60.1049
 L 76.2172,-60.0587 L 76.2382,-60.0143 L 76.2634,-59.9722 L 76.2926,-59.9328 L 76.3256,-59.8964 L 76.3619,-59.8635
 L 76.4013,-59.8343 L 76.4434,-59.809 L 76.4878,-59.7881 L 76.534,-59.7715 L 76.5816,-59.7596 L 76.6301,-59.7524
 L 76.6791,-59.75 L 85.4652,-59.75 z
M 78.2472,-143.747 L 78.2472,-147.009 L 81.0722,-148.64 L 83.8972,-147.009 L 83.8972,-143.747 L 81.0722,-142.116
 z
M 78.2472,-63.9906 L 78.2472,-67.2527 L 81.0722,-68.8837 L 83.8972,-67.2527 L 83.8972,-63.9906 L 81.0722,-62.3596
 z
M 98.8003,-59.7524 L 98.8488,-59.7596 L 98.8964,-59.7715 L 98.9426,-59.7881 L 98.987,-59.809 L 99.0291,-59.8343
 L 99.0685,-59.8635 L 99.1049,-59.8964 L 99.1378,-59.9328 L 99.167,-59.9722 L 99.1923,-60.0143 L 99.2132,-60.0587
 L 99.2298,-60.1049 L 99.2417,-60.1525 L 99.2489,-60.201 L 99.2513,-60.25 L 99.2513,-150.75 L 99.2489,-150.799
 L 99.2417,-150.848 L 99.2298,-150.895 L 99.2132,-150.941 L 99.1923,-150.986 L 99.167,-151.028 L 99.1378,-151.067
 L 99.1049,-151.104 L 99.0685,-151.137 L 99.0291,-151.166 L 98.987,-151.191 L 98.9426,-151.212 L 98.8964,-151.228
 L 98.8488,-151.24 L 98.8003,-151.248 L 98.7513,-151.25 L 89.9652,-151.25 L 89.9162,-151.248 L 89.8677,-151.24
 L 89.8201,-151.228 L 89.7739,-151.212 L 89.7295,-151.191 L 89.6874,-151.166 L 89.648,-151.137 L 89.6117,-151.104
 L 89.5787,-151.067 L 89.5495,-151.028 L 89.5243,-150.986 L 89.5033,-150.941 L 89.4867,-150.895 L 89.4748,-150.848
 L 89.4676,-150.799 L 89.4652,-150.75 L 89.4652,-60.25 L 89.4676,-60.201 L 89.4748,-60.1525 L 89.4867,-60.1049
 L 89.5033,-60.0587 L 89.5243,-60.0143 L 89.5495,-59.9722 L 89.5787,-59.9328 L 89.6117,-59.8964 L 89.648,-59.8635
 L 89.6874,-59.8343 L 89.7295,-59.809 L 89.7739,-59.7881 L 89.8201,-59.7715 L 89.8677,-59.7596 L 89.9162,-59.7524
 L 89.9652,-59.75 L 98.7513,-59.75 z
M 94.0461,-143.809 L 93.746,-143.9 L 93.4693,-144.048 L 93.2269,-144.247 L 93.0279,-144.489 L 92.8801,-144.766
 L 92.789,-145.066 L 92.7583,-145.378 L 92.789,-145.69 L 92.8801,-145.991 L 93.0279,-146.267 L 93.2269,-146.51
 L 93.4693,-146.709 L 93.746,-146.857 L 94.0461,-146.948 L 94.3583,-146.978 L 94.6704,-146.948 L 94.9706,-146.857
 L 95.2472,-146.709 L 95.4896,-146.51 L 95.6886,-146.267 L 95.8365,-145.991 L 95.9275,-145.69 L 95.9583,-145.378
 L 95.9275,-145.066 L 95.8365,-144.766 L 95.6886,-144.489 L 95.4896,-144.247 L 95.2472,-144.048 L 94.9706,-143.9
 L 94.6704,-143.809 L 94.3583,-143.778 z
M 94.0461,-64.0524 L 93.746,-64.1434 L 93.4693,-64.2913 L 93.2269,-64.4903 L 93.0279,-64.7327 L 92.8801,-65.0094
 L 92.789,-65.3095 L 92.7583,-65.6217 L 92.789,-65.9338 L 92.8801,-66.2339 L 93.0279,-66.5106 L 93.2269,-66.753
 L 93.4693,-66.952 L 93.746,-67.0999 L 94.0461,-67.1909 L 94.3583,-67.2217 L 94.6704,-67.1909 L 94.9706,-67.0999
 L 95.2472,-66.952 L 95.4896,-66.753 L 95.6886,-66.5106 L 95.8365,-66.2339 L 95.9275,-65.9338 L 95.9583,-65.6217
 L 95.9275,-65.3095 L 95.8365,-65.0094 L 95.6886,-64.7327 L 95.4896,-64.4903 L 95.2472,-64.2913 L 94.9706,-64.1434
 L 94.6704,-64.0524 L 94.3583,-64.0217 z
M 112.086,-59.7524 L 112.135,-59.7596 L 112.183,-59.7715 L 112.229,-59.7881 L 112.273,-59.809 L 112.315,-59.8343
 L 112.355,-59.8635 L 112.391,-59.8964 L 112.424,-59.9328 L 112.453,-59.9722 L 112.478,-60.0143 L 112.499,-60.0587
 L 112.516,-60.1049 L 112.528,-60.1525 L 112.535,-60.201 L 112.537,-60.25 L 112.537,-150.75 L 112.535,-150.799
 L 112.528,-150.848 L 112.516,-150.895 L 112.499,-150.941 L 112.478,-150.986 L 112.453,-151.028 L 112.424,-151.067
 L 112.391,-151.104 L 112.355,-151.137 L 112.315,-151.166 L 112.273,-151.191 L 112.229,-151.212 L 112.183,-151.228
 L 112.135,-151.24 L 112.086,-151.248 L 112.037,-151.25 L 103.251,-151.25 L 103.202,-151.248 L 103.154,-151.24
 L 103.106,-151.228 L 103.06,-151.212 L 103.016,-151.191 L 102.974,-151.166 L 102.934,-151.137 L 102.898,-151.104
 L 102.865,-151.067 L 102.836,-151.028 L 102.81,-150.986 L 102.789,-150.941 L 102.773,-150.895 L 102.761,-150.848
 L 102.754,-150.799 L 102.751,-150.75 L 102.751,-60.25 L 102.754,-60.201 L 102.761,-60.1525 L 102.773,-60.1049
 L 102.789,-60.0587 L 102.81,-60.0143 L 102.836,-59.9722 L 102.865,-59.9328 L 102.898,-59.8964 L 102.934,-59.8635
 L 102.974,-59.8343 L 103.016,-59.809 L 103.06,-59.7881 L 103.106,-59.7715 L 103.154,-59.7596 L 103.202,-59.7524
 L 103.251,-59.75 L 112.037,-59.75 z
M 107.332,-143.809 L 107.032,-143.9 L 106.755,-144.048 L 106.513,-144.247 L 106.314,-144.489 L 106.166,-144.766
 L 106.075,-145.066 L 106.044,-145.378 L 106.075,-145.69 L 106.166,-145.991 L 106.314,-146.267 L 106.513,-146.51
 L 106.755,-146.709 L 107.032,-146.857 L 107.332,-146.948 L 107.644,-146.978 L 107.956,-146.948 L 108.257,-146.857
 L 108.533,-146.709 L 108.776,-146.51 L 108.975,-146.267 L 109.123,-145.991 L 109.214,-145.69 L 109.244,-145.378
 L 109.214,-145.066 L 109.123,-144.766 L 108.975,-144.489 L 108.776,-144.247 L 108.533,-144.048 L 108.257,-143.9
 L 107.956,-143.809 L 107.644,-143.778 z
M 107.332,-64.0524 L 107.032,-64.1434 L 106.755,-64.2913 L 106.513,-64.4903 L 106.314,-64.7327 L 106.166,-65.0094
 L 106.075,-65.3095 L 106.044,-65.6217 L 106.075,-65.9338 L 106.166,-66.2339 L 106.314,-66.5106 L 106.513,-66.753
 L 106.755,-66.952 L 107.032,-67.0999 L 107.332,-67.1909 L 107.644,-67.2217 L 107.956,-67.1909 L 108.257,-67.0999
 L 108.533,-66.952 L 108.776,-66.753 L 108.975,-66.5106 L 109.123,-66.2339 L 109.214,-65.9338 L 109.244,-65.6217
 L 109.214,-65.3095 L 109.123,-65.0094 L 108.975,-64.7327 L 108.776,-64.4903 L 108.533,-64.2913 L 108.257,-64.1434
 L 107.956,-64.0524 L 107.644,-64.0217 z
M -68.951,-109.002 L -68.9025,-109.01 L -68.8549,-109.022 L -68.8087,-109.038 L -68.7643,-109.059 L -68.7222,-109.084
 L -68.6828,-109.113 L -68.6464,-109.146 L -68.6135,-109.183 L -68.5843,-109.222 L -68.559,-109.264 L -68.5381,-109.309
 L -68.5215,-109.355 L -68.5096,-109.402 L -68.5024,-109.451 L -68.5,-109.5 L -68.5,-148.75 L -68.5024,-148.799
 L -68.5096,-148.848 L -68.5215,-148.895 L -68.5381,-148.941 L -68.559,-148.986 L -68.5843,-149.028 L -68.6135,-149.067
 L -68.6464,-149.104 L -68.6828,-149.137 L -68.7222,-149.166 L -68.7643,-149.191 L -68.8087,-149.212 L -68.8549,-149.228
 L -68.9025,-149.24 L -68.951,-149.248 L -69,-149.25 L -93.75,-149.25 L -93.799,-149.248 L -93.8475,-149.24
 L -93.8951,-149.228 L -93.9413,-149.212 L -93.9857,-149.191 L -94.0278,-149.166 L -94.0672,-149.137 L -94.1036,-149.104
 L -94.1365,-149.067 L -94.1657,-149.028 L -94.191,-148.986 L -94.2119,-148.941 L -94.2285,-148.895 L -94.2404,-148.848
 L -94.2476,-148.799 L -94.25,-148.75 L -94.25,-109.5 L -94.2476,-109.451 L -94.2404,-109.402 L -94.2285,-109.355
 L -94.2119,-109.309 L -94.191,-109.264 L -94.1657,-109.222 L -94.1365,-109.183 L -94.1036,-109.146 L -94.0672,-109.113
 L -94.0278,-109.084 L -93.9857,-109.059 L -93.9413,-109.038 L -93.8951,-109.022 L -93.8475,-109.01 L -93.799,-109.002
 L -93.75,-109 L -69,-109 z
M -97.201,-110.752 L -97.1525,-110.76 L -97.1049,-110.772 L -97.0587,-110.788 L -97.0143,-110.809 L -96.9722,-110.834
 L -96.9328,-110.863 L -96.8964,-110.896 L -96.8635,-110.933 L -96.8343,-110.972 L -96.809,-111.014 L -96.7881,-111.059
 L -96.7715,-111.105 L -96.7596,-111.152 L -96.7524,-111.201 L -96.75,-111.25 L -96.75,-147 L -96.7524,-147.049
 L -96.7596,-147.098 L -96.7715,-147.145 L -96.7881,-147.191 L -96.809,-147.236 L -96.8343,-147.278 L -96.8635,-147.317
 L -96.8964,-147.354 L -96.9328,-147.387 L -96.9722,-147.416 L -97.0143,-147.441 L -97.0587,-147.462 L -97.1049,-147.478
 L -97.1525,-147.49 L -97.201,-147.498 L -97.25,-147.5 L -120,-147.5 L -120.049,-147.498 L -120.098,-147.49
 L -120.145,-147.478 L -120.191,-147.462 L -120.236,-147.441 L -120.278,-147.416 L -120.317,-147.387 L -120.354,-147.354
 L -120.387,-147.317 L -120.416,-147.278 L -120.441,-147.236 L -120.462,-147.191 L -120.478,-147.145 L -120.49,-147.098
 L -120.498,-147.049 L -120.5,-147 L -120.5,-111.25 L -120.498,-111.201 L -120.49,-111.152 L -120.478,-111.105
 L -120.462,-111.059 L -120.441,-111.014 L -120.416,-110.972 L -120.387,-110.933 L -120.354,-110.896 L -120.317,-110.863
 L -120.278,-110.834 L -120.236,-110.809 L -120.191,-110.788 L -120.145,-110.772 L -120.098,-110.76 L -120.049,-110.752
 L -120,-110.75 L -97.25,-110.75 z
M -115,-7.001 L -110,-7.001 L -110,-3.5 L -105,-3.5 L -105,-7.001 L -100,-7.001
 L -100,-3.5 L -95,-3.5 L -95,-7.001 L -90,-7.001 L -90,-3.5 L -85,-3.5
 L -85,-7.001 L -80,-7.001 L -80,-3.5 L -75,-3.5 L -75,-7.001 L -72.001,-7.001
 L -72.001,-12 L -68.5,-12 L -68.5,-17 L -72.001,-17 L -72.001,-22 L -68.5,-22
 L -68.5,-27 L -72.001,-27 L -72.001,-32 L -68.5,-32 L -68.5,-37 L -72.001,-37
 L -72.001,-42 L -68.5,-42 L -68.5,-47 L -72.001,-47 L -72.001,-52 L -68.5,-52
 L -68.5,-57 L -72.001,-57 L -72.001,-62 L -68.5,-62 L -68.5,-67 L -72.001,-67
 L -72.001,-72 L -68.5,-72 L -68.5,-77 L -72.001,-77 L -72.001,-82 L -68.5,-82
 L -68.5,-87 L -72.001,-87 L -72.001,-92 L -68.5,-92 L -68.5,-97 L -72.001,-97
 L -72.001,-102 L -75,-102 L -75,-105.5 L -80,-105.5 L -80,-102 L -85,-102
 L -85,-105.5 L -90,-105.5 L -90,-102 L -95,-102 L -95,-105.5 L -100,-105.5
 L -100,-102 L -105,-102 L -105,-105.5 L -110,-105.5 L -110,-102 L -115,-102
 L -115,-105.5 L -120,-105.5 L -120,-102 L -123,-102 L -123,-97 L -126.5,-97
 L -126.5,-92 L -123,-92 L -123,-87 L -126.5,-87 L -126.5,-82 L -123,-82
 L -123,-77 L -126.5,-77 L -126.5,-72 L -123,-72 L -123,-67 L -126.5,-67
 L -126.5,-62 L -123,-62 L -123,-57 L -126.5,-57 L -126.5,-52 L -123,-52
 L -123,-47 L -126.5,-47 L -126.5,-42 L -123,-42 L -123,-37 L -126.5,-37
 L -126.5,-32 L -123,-32 L -123,-27 L -126.5,-27 L -126.5,-22 L -123,-22
 L -123,-17 L -126.5,-17 L -126.5,-12 L -123,-12 L -123,-7.001 L -120,-7.001
 L -120,-3.5 L -115,-3.5 z
M -119.5,-96.8783 L -116,-96.8783 L -116,-91.8783 L -119.5,-91.8783 z
M -119.5,-57 L -116,-57 L -116,-52 L -119.5,-52 z
M -119.5,-17.1217 L -116,-17.1217 L -116,-12.1217 L -119.5,-12.1217 z
M -52.5,47.499 L -47.5,47.499 L -47.5,51 L -42.5,51 L -42.5,47.499 L -37.5,47.499
 L -37.5,51 L -32.5,51 L -32.5,47.499 L -27.5,47.499 L -27.5,51 L -22.5,51
 L -22.5,47.499 L -17.5,47.499 L -17.5,51 L -12.5,51 L -12.5,47.499 L -7.5,47.499
 L -7.5,51 L -2.5,51 L -2.5,47.499 L 2.5,47.499 L 2.5,51 L 7.5,51
 L 7.5,47.499 L 12.5,47.499 L 12.5,51 L 17.5,51 L 17.5,47.499 L 22.5,47.499
 L 22.5,51 L 27.5,51 L 27.5,47.499 L 32.5,47.499 L 32.5,51 L 37.5,51
 L 37.5,47.499 L 42.5,47.499 L 42.5,51 L 47.5,51 L 47.5,47.499 L 52.5,47.499
 L 52.5,51 L 57.5,51 L 57.5,47.499 L 65,47.499 L 65,42.5 L 61.499,42.5
 L 61.499,37.5 L 65,37.5 L 65,32.5 L 61.499,32.5 L 61.499,27.5 L 65,27.5
 L 65,22.5 L 61.499,22.5 L 61.499,17.5 L 65,17.5 L 65,12.5 L 61.499,12.5
 L 61.499,7.5 L 65,7.5 L 65,2.5 L 61.499,2.5 L 61.499,-2.5 L 65,-2.5
 L 65,-7.5 L 61.499,-7.5 L 61.499,-12.5 L 65,-12.5 L 65,-17.5 L 61.499,-17.5
 L 61.499,-22.5 L 65,-22.5 L 65,-27.5 L 61.499,-27.5 L 61.499,-32.5 L 65,-32.5
 L 65,-37.5 L 61.499,-37.5 L 61.499,-42.5 L 65,-42.5 L 65,-47.5 L 57.5,-47.5
 L 57.5,-51 L 52.5,-51 L 52.5,-47.5 L 47.5,-47.5 L 47.5,-51 L 42.5,-51
 L 42.5,-47.5 L 37.5,-47.5 L 37.5,-51 L 32.5,-51 L 32.5,-47.5 L 27.5,-47.5
 L 27.5,-51 L 22.5,-51 L 22.5,-47.5 L 17.5,-47.5 L 17.5,-51 L 12.5,-51
 L 12.5,-47.5 L 7.5,-47.5 L 7.5,-51 L 2.5,-51 L 2.5,-47.5 L -2.5,-47.5
 L -2.5,-51 L -7.5,-51 L -7.5,-47.5 L -12.5,-47.5 L -12.5,-51 L -17.5,-51
 L -17.5,-47.5 L -22.5,-47.5 L -22.5,-51 L -27.5,-51 L -27.5,-47.5 L -32.5,-47.5
 L -32.5,-51 L -37.5,-51 L -37.5,-47.5 L -42.5,-47.5 L -42.5,-51 L -47.5,-51
 L -47.5,-47.5 L -52.5,-47.5 L -52.5,-51 L -57.5,-51 L -57.5,-47.5 L -65,-47.5
 L -65,-42.5 L -61.5,-42.5 L -61.5,-37.5 L -65,-37.5 L -65,-32.5 L -61.5,-32.5
 L -61.5,-27.5 L -65,-27.5 L -65,-22.5 L -61.5,-22.5 L -61.5,-17.5 L -65,-17.5
 L -65,-12.5 L -61.5,-12.5 L -61.5,-7.5 L -65,-7.5 L -65,-2.5 L -61.5,-2.5
 L -61.5,2.5 L -65,2.5 L -65,7.5 L -61.5,7.5 L -61.5,12.5 L -65,12.5
 L -65,17.5 L -61.5,17.5 L -61.5,22.5 L -65,22.5 L -65,27.5 L -61.5,27.5
 L -61.5,32.5 L -65,32.5 L -65,37.5 L -61.5,37.5 L -61.5,42.5 L -65,42.5
 L -65,47.499 L -57.5,47.499 L -57.5,51 L -52.5,51 z
M 14.4019,-34.5 L 14.5656,-34.7835 L 15.5596,-34.931 L 18.0816,-35.0549 L 18.4019,-34.5 L 17.4019,-32.7679
 L 15.4019,-32.7679 z
M 24.7942,-34.5 L 24.8377,-34.5754 L 25.8477,-34.4256 L 28.3844,-33.7901 L 27.7942,-32.7679 L 25.7942,-32.7679
 z
M 9.20577,-31.5 L 10.2058,-33.2321 L 12.2058,-33.2321 L 13.2058,-31.5 L 12.2058,-29.7679 L 10.2058,-29.7679
 z
M 19.5981,-31.5 L 20.5981,-33.2321 L 22.5981,-33.2321 L 23.5981,-31.5 L 22.5981,-29.7679 L 20.5981,-29.7679
 z
M 29.9904,-31.5 L 30.8526,-32.9934 L 32.4322,-32.4282 L 33.8385,-31.763 L 33.9904,-31.5 L 32.9904,-29.7679
 L 30.9904,-29.7679 z
M 7.13777,-32.9899 L 7.00962,-32.7679 L 6.51743,-32.7679 z
M 2.45397,-30.9554 L 2.516,-30.9848 L 1.81347,-29.7679 L 0.472772,-29.7679 z
M 4.00962,-28.5 L 5.00962,-30.2321 L 7.00962,-30.2321 L 8.00962,-28.5 L 7.00962,-26.7679 L 5.00962,-26.7679
 z
M 14.4019,-28.5 L 15.4019,-30.2321 L 17.4019,-30.2321 L 18.4019,-28.5 L 17.4019,-26.7679 L 15.4019,-26.7679
 z
M 24.7942,-28.5 L 25.7942,-30.2321 L 27.7942,-30.2321 L 28.7942,-28.5 L 27.7942,-26.7679 L 25.7942,-26.7679
 z
M 35.1865,-28.5 L 36.1865,-30.2321 L 36.7529,-30.2321 L 38.5005,-29.1846 L 39.009,-28.8074 L 39.1865,-28.5
 L 38.1865,-26.7679 L 36.1865,-26.7679 z
M -3.2672,-27.1327 L -3.10091,-27.256 L -3.38269,-26.7679 L -3.66961,-26.7679 z
M -1.18653,-25.5 L -0.186533,-27.2321 L 1.81347,-27.2321 L 2.81347,-25.5 L 1.81347,-23.7679 L -0.186533,-23.7679
 z
M 9.20577,-25.5 L 10.2058,-27.2321 L 12.2058,-27.2321 L 13.2058,-25.5 L 12.2058,-23.7679 L 10.2058,-23.7679
 z
M 19.5981,-25.5 L 20.5981,-27.2321 L 22.5981,-27.2321 L 23.5981,-25.5 L 22.5981,-23.7679 L 20.5981,-23.7679
 z
M 29.9904,-25.5 L 30.9904,-27.2321 L 32.9904,-27.2321 L 33.9904,-25.5 L 32.9904,-23.7679 L 30.9904,-23.7679
 z
M 40.3827,-25.5 L 41.3053,-27.0981 L 43.8194,-24.8194 L 43.9235,-24.7047 L 43.3827,-23.7679 L 41.3827,-23.7679
 z
M -6.38269,-22.5 L -5.38269,-24.2321 L -3.38269,-24.2321 L -2.38269,-22.5 L -3.38269,-20.7679 L -5.38269,-20.7679
 z
M 4.00962,-22.5 L 5.00962,-24.2321 L 7.00962,-24.2321 L 8.00962,-22.5 L 7.00962,-20.7679 L 5.00962,-20.7679
 z
M 14.4019,-22.5 L 15.4019,-24.2321 L 17.4019,-24.2321 L 18.4019,-22.5 L 17.4019,-20.7679 L 15.4019,-20.7679
 z
M 24.7942,-22.5 L 25.7942,-24.2321 L 27.7942,-24.2321 L 28.7942,-22.5 L 27.7942,-20.7679 L 25.7942,-20.7679
 z
M 35.1865,-22.5 L 36.1865,-24.2321 L 38.1865,-24.2321 L 39.1865,-22.5 L 38.1865,-20.7679 L 36.1865,-20.7679
 z
M 45.5788,-22.5 L 45.7122,-22.7311 L 46.1327,-22.2672 L 47.2446,-20.7679 L 46.5788,-20.7679 z
M -10.8949,-18.3154 L -10.1846,-19.5005 L -8.90039,-21.2321 L -8.57884,-21.2321 L -7.57884,-19.5 L -8.57884,-17.7679
 L -10.5788,-17.7679 z
M -1.18653,-19.5 L -0.186533,-21.2321 L 1.81347,-21.2321 L 2.81347,-19.5 L 1.81347,-17.7679 L -0.186533,-17.7679
 z
M 9.20577,-19.5 L 10.2058,-21.2321 L 12.2058,-21.2321 L 13.2058,-19.5 L 12.2058,-17.7679 L 10.2058,-17.7679
 z
M 19.5981,-19.5 L 20.5981,-21.2321 L 22.5981,-21.2321 L 23.5981,-19.5 L 22.5981,-17.7679 L 20.5981,-17.7679
 z
M 29.9904,-19.5 L 30.9904,-21.2321 L 32.9904,-21.2321 L 33.9904,-19.5 L 32.9904,-17.7679 L 30.9904,-17.7679
 z
M 40.3827,-19.5 L 41.3827,-21.2321 L 43.3827,-21.2321 L 44.3827,-19.5 L 43.3827,-17.7679 L 41.3827,-17.7679
 z
M -6.38269,-16.5 L -5.38269,-18.2321 L -3.38269,-18.2321 L -2.38269,-16.5 L -3.38269,-14.7679 L -5.38269,-14.7679
 z
M 4.00962,-16.5 L 5.00962,-18.2321 L 7.00962,-18.2321 L 8.00962,-16.5 L 7.00962,-14.7679 L 5.00962,-14.7679
 z
M 14.4019,-16.5 L 15.4019,-18.2321 L 17.4019,-18.2321 L 18.4019,-16.5 L 17.4019,-14.7679 L 15.4019,-14.7679
 z
M 24.7942,-16.5 L 25.7942,-18.2321 L 27.7942,-18.2321 L 28.7942,-16.5 L 27.7942,-14.7679 L 25.7942,-14.7679
 z
M 35.1865,-16.5 L 36.1865,-18.2321 L 38.1865,-18.2321 L 39.1865,-16.5 L 38.1865,-14.7679 L 36.1865,-14.7679
 z
M 45.5788,-16.5 L 46.5788,-18.2321 L 48.5788,-18.2321 L 49.5788,-16.5 L 48.5788,-14.7679 L 46.5788,-14.7679
 z
M -11.5788,-13.5 L -10.5788,-15.2321 L -8.57884,-15.2321 L -7.57884,-13.5 L -8.57884,-11.7679 L -10.5788,-11.7679
 z
M -1.18653,-13.5 L -0.186533,-15.2321 L 1.81347,-15.2321 L 2.81347,-13.5 L 1.81347,-11.7679 L -0.186533,-11.7679
 z
M 9.20577,-13.5 L 10.2058,-15.2321 L 12.2058,-15.2321 L 13.2058,-13.5 L 12.2058,-11.7679 L 10.2058,-11.7679
 z
M 19.5981,-13.5 L 20.5981,-15.2321 L 22.5981,-15.2321 L 23.5981,-13.5 L 22.5981,-11.7679 L 20.5981,-11.7679
 z
M 29.9904,-13.5 L 30.9904,-15.2321 L 32.9904,-15.2321 L 33.9904,-13.5 L 32.9904,-11.7679 L 30.9904,-11.7679
 z
M 40.3827,-13.5 L 41.3827,-15.2321 L 43.3827,-15.2321 L 44.3827,-13.5 L 43.3827,-11.7679 L 41.3827,-11.7679
 z
M 50.775,-13.5 L 51.1164,-14.0914 L 51.4282,-13.4322 L 52.0236,-11.7679 L 51.775,-11.7679 z
M -14.5886,-10.189 L -13.8576,-12.2321 L -13.775,-12.2321 L -12.775,-10.5 L -13.775,-8.76795 L -14.9446,-8.76795
 z
M -6.38269,-10.5 L -5.38269,-12.2321 L -3.38269,-12.2321 L -2.38269,-10.5 L -3.38269,-8.76795 L -5.38269,-8.76795
 z
M 4.00962,-10.5 L 5.00962,-12.2321 L 7.00962,-12.2321 L 8.00962,-10.5 L 7.00962,-8.76795 L 5.00962,-8.76795
 z
M 14.4019,-10.5 L 15.4019,-12.2321 L 17.4019,-12.2321 L 18.4019,-10.5 L 17.4019,-8.76795 L 15.4019,-8.76795
 z
M 24.7942,-10.5 L 25.7942,-12.2321 L 27.7942,-12.2321 L 28.7942,-10.5 L 27.7942,-8.76795 L 25.7942,-8.76795
 z
M 35.1865,-10.5 L 36.1865,-12.2321 L 38.1865,-12.2321 L 39.1865,-10.5 L 38.1865,-8.76795 L 36.1865,-8.76795
 z
M 45.5788,-10.5 L 46.5788,-12.2321 L 48.5788,-12.2321 L 49.5788,-10.5 L 48.5788,-8.76795 L 46.5788,-8.76795
 z
M -11.5788,-7.5 L -10.5788,-9.23205 L -8.57884,-9.23205 L -7.57884,-7.5 L -8.57884,-5.76795 L -10.5788,-5.76795
 z
M -1.18653,-7.5 L -0.186533,-9.23205 L 1.81347,-9.23205 L 2.81347,-7.5 L 1.81347,-5.76795 L -0.186533,-5.76795
 z
M 9.20577,-7.5 L 10.2058,-9.23205 L 12.2058,-9.23205 L 13.2058,-7.5 L 12.2058,-5.76795 L 10.2058,-5.76795
 z
M 19.5981,-7.5 L 20.5981,-9.23205 L 22.5981,-9.23205 L 23.5981,-7.5 L 22.5981,-5.76795 L 20.5981,-5.76795
 z
M 29.9904,-7.5 L 30.9904,-9.23205 L 32.9904,-9.23205 L 33.9904,-7.5 L 32.9904,-5.76795 L 30.9904,-5.76795
 z
M 40.3827,-7.5 L 41.3827,-9.23205 L 43.3827,-9.23205 L 44.3827,-7.5 L 43.3827,-5.76795 L 41.3827,-5.76795
 z
M 50.775,-7.5 L 51.775,-9.23205 L 52.8283,-9.23205 L 53.4256,-6.84767 L 53.5857,-5.76795 L 51.775,-5.76795
 z
M -15.9492,-3.06968 L -15.931,-3.4404 L -15.5169,-6.23205 L -13.775,-6.23205 L -12.775,-4.5 L -13.775,-2.76795
 L -15.775,-2.76795 z
M -6.38269,-4.5 L -5.38269,-6.23205 L -3.38269,-6.23205 L -2.38269,-4.5 L -3.38269,-2.76795 L -5.38269,-2.76795
 z
M 4.00962,-4.5 L 5.00962,-6.23205 L 7.00962,-6.23205 L 8.00962,-4.5 L 7.00962,-2.76795 L 5.00962,-2.76795
 z
M 14.4019,-4.5 L 15.4019,-6.23205 L 17.4019,-6.23205 L 18.4019,-4.5 L 17.4019,-2.76795 L 15.4019,-2.76795
 z
M 24.7942,-4.5 L 25.7942,-6.23205 L 27.7942,-6.23205 L 28.7942,-4.5 L 27.7942,-2.76795 L 25.7942,-2.76795
 z
M 35.1865,-4.5 L 36.1865,-6.23205 L 38.1865,-6.23205 L 39.1865,-4.5 L 38.1865,-2.76795 L 36.1865,-2.76795
 z
M 45.5788,-4.5 L 46.5788,-6.23205 L 48.5788,-6.23205 L 49.5788,-4.5 L 48.5788,-2.76795 L 46.5788,-2.76795
 z
M -11.5788,-1.5 L -10.5788,-3.23205 L -8.57884,-3.23205 L -7.57884,-1.5 L -8.57884,0.232051 L -10.5788,0.232051
 z
M -1.18653,-1.5 L -0.186533,-3.23205 L 1.81347,-3.23205 L 2.81347,-1.5 L 1.81347,0.232051 L -0.186533,0.232051
 z
M 9.20577,-1.5 L 10.2058,-3.23205 L 12.2058,-3.23205 L 13.2058,-1.5 L 12.2058,0.232051 L 10.2058,0.232051
 z
M 19.5981,-1.5 L 20.5981,-3.23205 L 22.5981,-3.23205 L 23.5981,-1.5 L 22.5981,0.232051 L 20.5981,0.232051
 z
M 29.9904,-1.5 L 30.9904,-3.23205 L 32.9904,-3.23205 L 33.9904,-1.5 L 32.9904,0.232051 L 30.9904,0.232051
 z
M 40.3827,-1.5 L 41.3827,-3.23205 L 43.3827,-3.23205 L 44.3827,-1.5 L 43.3827,0.232051 L 41.3827,0.232051
 z
M 50.775,-1.5 L 51.775,-3.23205 L 53.775,-3.23205 L 53.9567,-2.91736 L 54.085,-0.304935 L 53.775,0.232051
 L 51.775,0.232051 z
M -15.9567,2.91736 L -16.085,0.304935 L -15.775,-0.232051 L -13.775,-0.232051 L -12.775,1.5 L -13.775,3.23205
 L -15.775,3.23205 z
M -6.38269,1.5 L -5.38269,-0.232051 L -3.38269,-0.232051 L -2.38269,1.5 L -3.38269,3.23205 L -5.38269,3.23205
 z
M 4.00962,1.5 L 5.00962,-0.232051 L 7.00962,-0.232051 L 8.00962,1.5 L 7.00962,3.23205 L 5.00962,3.23205
 z
M 14.4019,1.5 L 15.4019,-0.232051 L 17.4019,-0.232051 L 18.4019,1.5 L 17.4019,3.23205 L 15.4019,3.23205
 z
M 24.7942,1.5 L 25.7942,-0.232051 L 27.7942,-0.232051 L 28.7942,1.5 L 27.7942,3.23205 L 25.7942,3.23205
 z
M 35.1865,1.5 L 36.1865,-0.232051 L 38.1865,-0.232051 L 39.1865,1.5 L 38.1865,3.23205 L 36.1865,3.23205
 z
M 45.5788,1.5 L 46.5788,-0.232051 L 48.5788,-0.232051 L 49.5788,1.5 L 48.5788,3.23205 L 46.5788,3.23205
 z
M -11.5788,4.5 L -10.5788,2.76795 L -8.57884,2.76795 L -7.57884,4.5 L -8.57884,6.23205 L -10.5788,6.23205
 z
M -1.18653,4.5 L -0.186533,2.76795 L 1.81347,2.76795 L 2.81347,4.5 L 1.81347,6.23205 L -0.186533,6.23205
 z
M 9.20577,4.5 L 10.2058,2.76795 L 12.2058,2.76795 L 13.2058,4.5 L 12.2058,6.23205 L 10.2058,6.23205
 z
M 19.5981,4.5 L 20.5981,2.76795 L 22.5981,2.76795 L 23.5981,4.5 L 22.5981,6.23205 L 20.5981,6.23205
 z
M 29.9904,4.5 L 30.9904,2.76795 L 32.9904,2.76795 L 33.9904,4.5 L 32.9904,6.23205 L 30.9904,6.23205
 z
M 40.3827,4.5 L 41.3827,2.76795 L 43.3827,2.76795 L 44.3827,4.5 L 43.3827,6.23205 L 41.3827,6.23205
 z
M 50.775,4.5 L 51.775,2.76795 L 53.775,2.76795 L 53.9492,3.06968 L 53.931,3.4404 L 53.5169,6.23205
 L 51.775,6.23205 z
M -15.4256,6.84767 L -15.5857,5.76795 L -13.775,5.76795 L -12.775,7.5 L -13.775,9.23205 L -14.8283,9.23205
 z
M -6.38269,7.5 L -5.38269,5.76795 L -3.38269,5.76795 L -2.38269,7.5 L -3.38269,9.23205 L -5.38269,9.23205
 z
M 4.00962,7.5 L 5.00962,5.76795 L 7.00962,5.76795 L 8.00962,7.5 L 7.00962,9.23205 L 5.00962,9.23205
 z
M 14.4019,7.5 L 15.4019,5.76795 L 17.4019,5.76795 L 18.4019,7.5 L 17.4019,9.23205 L 15.4019,9.23205
 z
M 24.7942,7.5 L 25.7942,5.76795 L 27.7942,5.76795 L 28.7942,7.5 L 27.7942,9.23205 L 25.7942,9.23205
 z
M 35.1865,7.5 L 36.1865,5.76795 L 38.1865,5.76795 L 39.1865,7.5 L 38.1865,9.23205 L 36.1865,9.23205
 z
M 45.5788,7.5 L 46.5788,5.76795 L 48.5788,5.76795 L 49.5788,7.5 L 48.5788,9.23205 L 46.5788,9.23205
 z
M -11.5788,10.5 L -10.5788,8.76795 L -8.57884,8.76795 L -7.57884,10.5 L -8.57884,12.2321 L -10.5788,12.2321
 z
M -1.18653,10.5 L -0.186533,8.76795 L 1.81347,8.76795 L 2.81347,10.5 L 1.81347,12.2321 L -0.186533,12.2321
 z
M 9.20577,10.5 L 10.2058,8.76795 L 12.2058,8.76795 L 13.2058,10.5 L 12.2058,12.2321 L 10.2058,12.2321
 z
M 19.5981,10.5 L 20.5981,8.76795 L 22.5981,8.76795 L 23.5981,10.5 L 22.5981,12.2321 L 20.5981,12.2321
 z
M 29.9904,10.5 L 30.9904,8.76795 L 32.9904,8.76795 L 33.9904,10.5 L 32.9904,12.2321 L 30.9904,12.2321
 z
M 40.3827,10.5 L 41.3827,8.76795 L 43.3827,8.76795 L 44.3827,10.5 L 43.3827,12.2321 L 41.3827,12.2321
 z
M 50.775,10.5 L 51.775,8.76795 L 52.9446,8.76795 L 52.5886,10.189 L 51.8576,12.2321 L 51.775,12.2321
 z
M -13.4282,13.4322 L -14.0236,11.7679 L -13.775,11.7679 L -12.775,13.5 L -13.1164,14.0914 z
M -6.38269,13.5 L -5.38269,11.7679 L -3.38269,11.7679 L -2.38269,13.5 L -3.38269,15.2321 L -5.38269,15.2321
 z
M 4.00962,13.5 L 5.00962,11.7679 L 7.00962,11.7679 L 8.00962,13.5 L 7.00962,15.2321 L 5.00962,15.2321
 z
M 14.4019,13.5 L 15.4019,11.7679 L 17.4019,11.7679 L 18.4019,13.5 L 17.4019,15.2321 L 15.4019,15.2321
 z
M 24.7942,13.5 L 25.7942,11.7679 L 27.7942,11.7679 L 28.7942,13.5 L 27.7942,15.2321 L 25.7942,15.2321
 z
M 35.1865,13.5 L 36.1865,11.7679 L 38.1865,11.7679 L 39.1865,13.5 L 38.1865,15.2321 L 36.1865,15.2321
 z
M 45.5788,13.5 L 46.5788,11.7679 L 48.5788,11.7679 L 49.5788,13.5 L 48.5788,15.2321 L 46.5788,15.2321
 z
M -11.5788,16.5 L -10.5788,14.7679 L -8.57884,14.7679 L -7.57884,16.5 L -8.57884,18.2321 L -10.5788,18.2321
 z
M -1.18653,16.5 L -0.186533,14.7679 L 1.81347,14.7679 L 2.81347,16.5 L 1.81347,18.2321 L -0.186533,18.2321
 z
M 9.20577,16.5 L 10.2058,14.7679 L 12.2058,14.7679 L 13.2058,16.5 L 12.2058,18.2321 L 10.2058,18.2321
 z
M 19.5981,16.5 L 20.5981,14.7679 L 22.5981,14.7679 L 23.5981,16.5 L 22.5981,18.2321 L 20.5981,18.2321
 z
M 29.9904,16.5 L 30.9904,14.7679 L 32.9904,14.7679 L 33.9904,16.5 L 32.9904,18.2321 L 30.9904,18.2321
 z
M 40.3827,16.5 L 41.3827,14.7679 L 43.3827,14.7679 L 44.3827,16.5 L 43.3827,18.2321 L 41.3827,18.2321
 z
M -6.38269,19.5 L -5.38269,17.7679 L -3.38269,17.7679 L -2.38269,19.5 L -3.38269,21.2321 L -5.38269,21.2321
 z
M 4.00962,19.5 L 5.00962,17.7679 L 7.00962,17.7679 L 8.00962,19.5 L 7.00962,21.2321 L 5.00962,21.2321
 z
M 14.4019,19.5 L 15.4019,17.7679 L 17.4019,17.7679 L 18.4019,19.5 L 17.4019,21.2321 L 15.4019,21.2321
 z
M 24.7942,19.5 L 25.7942,17.7679 L 27.7942,17.7679 L 28.7942,19.5 L 27.7942,21.2321 L 25.7942,21.2321
 z
M 35.1865,19.5 L 36.1865,17.7679 L 38.1865,17.7679 L 39.1865,19.5 L 38.1865,21.2321 L 36.1865,21.2321
 z
M 45.5788,19.5 L 46.5788,17.7679 L 48.5788,17.7679 L 48.8949,18.3154 L 48.1846,19.5005 L 46.9004,21.2321
 L 46.5788,21.2321 z
M -8.13267,22.2672 L -9.24459,20.7679 L -8.57884,20.7679 L -7.57884,22.5 L -7.71225,22.7311 z
M -1.18653,22.5 L -0.186533,20.7679 L 1.81347,20.7679 L 2.81347,22.5 L 1.81347,24.2321 L -0.186533,24.2321
 z
M 9.20577,22.5 L 10.2058,20.7679 L 12.2058,20.7679 L 13.2058,22.5 L 12.2058,24.2321 L 10.2058,24.2321
 z
M 19.5981,22.5 L 20.5981,20.7679 L 22.5981,20.7679 L 23.5981,22.5 L 22.5981,24.2321 L 20.5981,24.2321
 z
M 29.9904,22.5 L 30.9904,20.7679 L 32.9904,20.7679 L 33.9904,22.5 L 32.9904,24.2321 L 30.9904,24.2321
 z
M 40.3827,22.5 L 41.3827,20.7679 L 43.3827,20.7679 L 44.3827,22.5 L 43.3827,24.2321 L 41.3827,24.2321
 z
M -5.81945,24.8194 L -5.92349,24.7047 L -5.38269,23.7679 L -3.38269,23.7679 L -2.38269,25.5 L -3.30535,27.0981
 z
M 4.00962,25.5 L 5.00962,23.7679 L 7.00962,23.7679 L 8.00962,25.5 L 7.00962,27.2321 L 5.00962,27.2321
 z
M 14.4019,25.5 L 15.4019,23.7679 L 17.4019,23.7679 L 18.4019,25.5 L 17.4019,27.2321 L 15.4019,27.2321
 z
M 24.7942,25.5 L 25.7942,23.7679 L 27.7942,23.7679 L 28.7942,25.5 L 27.7942,27.2321 L 25.7942,27.2321
 z
M 35.1865,25.5 L 36.1865,23.7679 L 38.1865,23.7679 L 39.1865,25.5 L 38.1865,27.2321 L 36.1865,27.2321
 z
M -0.500515,29.1846 L -1.00903,28.8074 L -1.18653,28.5 L -0.186533,26.7679 L 1.81347,26.7679 L 2.81347,28.5
 L 1.81347,30.2321 L 1.24708,30.2321 z
M 9.20577,28.5 L 10.2058,26.7679 L 12.2058,26.7679 L 13.2058,28.5 L 12.2058,30.2321 L 10.2058,30.2321
 z
M 19.5981,28.5 L 20.5981,26.7679 L 22.5981,26.7679 L 23.5981,28.5 L 22.5981,30.2321 L 20.5981,30.2321
 z
M 29.9904,28.5 L 30.9904,26.7679 L 32.9904,26.7679 L 33.9904,28.5 L 32.9904,30.2321 L 30.9904,30.2321
 z
M 41.3827,26.7679 L 41.6696,26.7679 L 41.2672,27.1327 L 41.1009,27.256 z
M 5.56781,32.4282 L 4.16148,31.763 L 4.00962,31.5 L 5.00962,29.7679 L 7.00962,29.7679 L 8.00962,31.5
 L 7.14742,32.9934 z
M 14.4019,31.5 L 15.4019,29.7679 L 17.4019,29.7679 L 18.4019,31.5 L 17.4019,33.2321 L 15.4019,33.2321
 z
M 24.7942,31.5 L 25.7942,29.7679 L 27.7942,29.7679 L 28.7942,31.5 L 27.7942,33.2321 L 25.7942,33.2321
 z
M 36.1865,29.7679 L 37.5272,29.7679 L 35.546,30.9554 L 35.484,30.9848 z
M 12.1523,34.4256 L 9.61561,33.7901 L 10.2058,32.7679 L 12.2058,32.7679 L 13.2058,34.5 L 13.1623,34.5754
 z
M 19.5981,34.5 L 20.5981,32.7679 L 22.5981,32.7679 L 23.5981,34.5 L 23.4344,34.7835 L 22.4404,34.931
 L 19.9184,35.0549 z
M 30.9904,32.7679 L 31.4826,32.7679 L 30.8622,32.9899 z
M 85.5142,45.7476 L 85.5628,45.7404 L 85.6104,45.7285 L 85.6566,45.7119 L 85.7009,45.691 L 85.743,45.6657
 L 85.7824,45.6365 L 85.8188,45.6036 L 85.8517,45.5672 L 85.881,45.5278 L 85.9062,45.4857 L 85.9272,45.4413
 L 85.9437,45.3951 L 85.9556,45.3475 L 85.9628,45.299 L 85.9652,45.25 L 85.9652,-45.25 L 85.9628,-45.299
 L 85.9556,-45.3475 L 85.9437,-45.3951 L 85.9272,-45.4413 L 85.9062,-45.4857 L 85.881,-45.5278 L 85.8517,-45.5672
 L 85.8188,-45.6036 L 85.7824,-45.6365 L 85.743,-45.6657 L 85.7009,-45.691 L 85.6566,-45.7119 L 85.6104,-45.7285
 L 85.5628,-45.7404 L 85.5142,-45.7476 L 85.4652,-45.75 L 76.6791,-45.75 L 76.6301,-45.7476 L 76.5816,-45.7404
 L 76.534,-45.7285 L 76.4878,-45.7119 L 76.4434,-45.691 L 76.4013,-45.6657 L 76.3619,-45.6365 L 76.3256,-45.6036
 L 76.2926,-45.5672 L 76.2634,-45.5278 L 76.2382,-45.4857 L 76.2172,-45.4413 L 76.2007,-45.3951 L 76.1887,-45.3475
 L 76.1815,-45.299 L 76.1791,-45.25 L 76.1791,-42.3783 L 72.6791,-42.3783 L 72.6791,-37.3783 L 76.1791,-37.3783
 L 76.1791,-2.5 L 72.6791,-2.5 L 72.6791,2.5 L 76.1791,2.5 L 76.1791,37.3783 L 72.6791,37.3783
 L 72.6791,42.3783 L 76.1791,42.3783 L 76.1791,45.25 L 76.1815,45.299 L 76.1887,45.3475 L 76.2007,45.3951
 L 76.2172,45.4413 L 76.2382,45.4857 L 76.2634,45.5278 L 76.2926,45.5672 L 76.3256,45.6036 L 76.3619,45.6365
 L 76.4013,45.6657 L 76.4434,45.691 L 76.4878,45.7119 L 76.534,45.7285 L 76.5816,45.7404 L 76.6301,45.7476
 L 76.6791,45.75 L 85.4652,45.75 z
M 78.2472,-38.2473 L 78.2472,-41.5094 L 81.0722,-43.1404 L 83.8972,-41.5094 L 83.8972,-38.2473 L 81.0722,-36.6163
 z
M 78.2472,41.5094 L 78.2472,38.2473 L 81.0722,36.6163 L 83.8972,38.2473 L 83.8972,41.5094 L 81.0722,43.1404
 z
M 98.8003,45.7476 L 98.8488,45.7404 L 98.8964,45.7285 L 98.9426,45.7119 L 98.987,45.691 L 99.0291,45.6657
 L 99.0685,45.6365 L 99.1049,45.6036 L 99.1378,45.5672 L 99.167,45.5278 L 99.1923,45.4857 L 99.2132,45.4413
 L 99.2298,45.3951 L 99.2417,45.3475 L 99.2489,45.299 L 99.2513,45.25 L 99.2513,-45.25 L 99.2489,-45.299
 L 99.2417,-45.3475 L 99.2298,-45.3951 L 99.2132,-45.4413 L 99.1923,-45.4857 L 99.167,-45.5278 L 99.1378,-45.5672
 L 99.1049,-45.6036 L 99.0685,-45.6365 L 99.0291,-45.6657 L 98.987,-45.691 L 98.9426,-45.7119 L 98.8964,-45.7285
 L 98.8488,-45.7404 L 98.8003,-45.7476 L 98.7513,-45.75 L 89.9652,-45.75 L 89.9162,-45.7476 L 89.8677,-45.7404
 L 89.8201,-45.7285 L 89.7739,-45.7119 L 89.7295,-45.691 L 89.6874,-45.6657 L 89.648,-45.6365 L 89.6117,-45.6036
 L 89.5787,-45.5672 L 89.5495,-45.5278 L 89.5243,-45.4857 L 89.5033,-45.4413 L 89.4867,-45.3951 L 89.4748,-45.3475
 L 89.4676,-45.299 L 89.4652,-45.25 L 89.4652,45.25 L 89.4676,45.299 L 89.4748,45.3475 L 89.4867,45.3951
 L 89.5033,45.4413 L 89.5243,45.4857 L 89.5495,45.5278 L 89.5787,45.5672 L 89.6117,45.6036 L 89.648,45.6365
 L 89.6874,45.6657 L 89.7295,45.691 L 89.7739,45.7119 L 89.8201,45.7285 L 89.8677,45.7404 L 89.9162,45.7476
 L 89.9652,45.75 L 98.7513,45.75 z
M 94.0461,-38.3091 L 93.746,-38.4001 L 93.4693,-38.548 L 93.2269,-38.747 L 93.0279,-38.9894 L 92.8801,-39.2661
 L 92.789,-39.5662 L 92.7583,-39.8783 L 92.789,-40.1905 L 92.8801,-40.4906 L 93.0279,-40.7673 L 93.2269,-41.0097
 L 93.4693,-41.2087 L 93.746,-41.3566 L 94.0461,-41.4476 L 94.3583,-41.4783 L 94.6704,-41.4476 L 94.9706,-41.3566
 L 95.2472,-41.2087 L 95.4896,-41.0097 L 95.6886,-40.7673 L 95.8365,-40.4906 L 95.9275,-40.1905 L 95.9583,-39.8783
 L 95.9275,-39.5662 L 95.8365,-39.2661 L 95.6886,-38.9894 L 95.4896,-38.747 L 95.2472,-38.548 L 94.9706,-38.4001
 L 94.6704,-38.3091 L 94.3583,-38.2783 z
M 94.0461,41.4476 L 93.746,41.3566 L 93.4693,41.2087 L 93.2269,41.0097 L 93.0279,40.7673 L 92.8801,40.4906
 L 92.789,40.1905 L 92.7583,39.8783 L 92.789,39.5662 L 92.8801,39.2661 L 93.0279,38.9894 L 93.2269,38.747
 L 93.4693,38.548 L 93.746,38.4001 L 94.0461,38.3091 L 94.3583,38.2783 L 94.6704,38.3091 L 94.9706,38.4001
 L 95.2472,38.548 L 95.4896,38.747 L 95.6886,38.9894 L 95.8365,39.2661 L 95.9275,39.5662 L 95.9583,39.8783
 L 95.9275,40.1905 L 95.8365,40.4906 L 95.6886,40.7673 L 95.4896,41.0097 L 95.2472,41.2087 L 94.9706,41.3566
 L 94.6704,41.4476 L 94.3583,41.4783 z
M 112.086,45.7476 L 112.135,45.7404 L 112.183,45.7285 L 112.229,45.7119 L 112.273,45.691 L 112.315,45.6657
 L 112.355,45.6365 L 112.391,45.6036 L 112.424,45.5672 L 112.453,45.5278 L 112.478,45.4857 L 112.499,45.4413
 L 112.516,45.3951 L 112.528,45.3475 L 112.535,45.299 L 112.537,45.25 L 112.537,-45.25 L 112.535,-45.299
 L 112.528,-45.3475 L 112.516,-45.3951 L 112.499,-45.4413 L 112.478,-45.4857 L 112.453,-45.5278 L 112.424,-45.5672
 L 112.391,-45.6036 L 112.355,-45.6365 L 112.315,-45.6657 L 112.273,-45.691 L 112.229,-45.7119 L 112.183,-45.7285
 L 112.135,-45.7404 L 112.086,-45.7476 L 112.037,-45.75 L 103.251,-45.75 L 103.202,-45.7476 L 103.154,-45.7404
 L 103.106,-45.7285 L 103.06,-45.7119 L 103.016,-45.691 L 102.974,-45.6657 L 102.934,-45.6365 L 102.898,-45.6036
 L 102.865,-45.5672 L 102.836,-45.5278 L 102.81,-45.4857 L 102.789,-45.4413 L 102.773,-45.3951 L 102.761,-45.3475
 L 102.754,-45.299 L 102.751,-45.25 L 102.751,45.25 L 102.754,45.299 L 102.761,45.3475 L 102.773,45.3951
 L 102.789,45.4413 L 102.81,45.4857 L 102.836,45.5278 L 102.865,45.5672 L 102.898,45.6036 L 102.934,45.6365
 L 102.974,45.6657 L 103.016,45.691 L 103.06,45.7119 L 103.106,45.7285 L 103.154,45.7404 L 103.202,45.7476
 L 103.251,45.75 L 112.037,45.75 z
M 107.332,-38.3091 L 107.032,-38.4001 L 106.755,-38.548 L 106.513,-38.747 L 106.314,-38.9894 L 106.166,-39.2661
 L 106.075,-39.5662 L 106.044,-39.8783 L 106.075,-40.1905 L 106.166,-40.4906 L 106.314,-40.7673 L 106.513,-41.0097
 L 106.755,-41.2087 L 107.032,-41.3566 L 107.332,-41.4476 L 107.644,-41.4783 L 107.956,-41.4476 L 108.257,-41.3566
 L 108.533,-41.2087 L 108.776,-41.0097 L 108.975,-40.7673 L 109.123,-40.4906 L 109.214,-40.1905 L 109.244,-39.8783
 L 109.214,-39.5662 L 109.123,-39.2661 L 108.975,-38.9894 L 108.776,-38.747 L 108.533,-38.548 L 108.257,-38.4001
 L 107.956,-38.3091 L 107.644,-38.2783 z
M 107.332,41.4476 L 107.032,41.3566 L 106.755,41.2087 L 106.513,41.0097 L 106.314,40.7673 L 106.166,40.4906
 L 106.075,40.1905 L 106.044,39.8783 L 106.075,39.5662 L 106.166,39.2661 L 106.314,38.9894 L 106.513,38.747
 L 106.755,38.548 L 107.032,38.4001 L 107.332,38.3091 L 107.644,38.2783 L 107.956,38.3091 L 108.257,38.4001
 L 108.533,38.548 L 108.776,38.747 L 108.975,38.9894 L 109.123,39.2661 L 109.214,39.5662 L 109.244,39.8783
 L 109.214,40.1905 L 109.123,40.4906 L 108.975,40.7673 L 108.776,41.0097 L 108.533,41.2087 L 108.257,41.3566
 L 107.956,41.4476 L 107.644,41.4783 z
M -115,101.999 L -110,101.999 L -110,105.5 L -105,105.5 L -105,101.999 L -100,101.999
 L -100,105.5 L -95,105.5 L -95,101.999 L -90,101.999 L -90,105.5 L -85,105.5
 L -85,101.999 L -80,101.999 L -80,105.5 L -75,105.5 L -75,101.999 L -72.001,101.999
 L -72.001,97 L -68.5,97 L -68.5,92 L -72.001,92 L -72.001,87 L -68.5,87
 L -68.5,82 L -72.001,82 L -72.001,77 L -68.5,77 L -68.5,72 L -72.001,72
 L -72.001,67 L -68.5,67 L -68.5,62 L -72.001,62 L -72.001,57 L -68.5,57
 L -68.5,52 L -72.001,52 L -72.001,47 L -68.5,47 L -68.5,42 L -72.001,42
 L -72.001,37 L -68.5,37 L -68.5,32 L -72.001,32 L -72.001,27 L -68.5,27
 L -68.5,22 L -72.001,22 L -72.001,17 L -68.5,17 L -68.5,12 L -72.001,12
 L -72.001,7 L -75,7 L -75,3.5 L -80,3.5 L -80,7 L -85,7
 L -85,3.5 L -90,3.5 L -90,7 L -95,7 L -95,3.5 L -100,3.5
 L -100,7 L -105,7 L -105,3.5 L -110,3.5 L -110,7 L -115,7
 L -115,3.5 L -120,3.5 L -120,7 L -123,7 L -123,12 L -126.5,12
 L -126.5,17 L -123,17 L -123,22 L -126.5,22 L -126.5,27 L -123,27
 L -123,32 L -126.5,32 L -126.5,37 L -123,37 L -123,42 L -126.5,42
 L -126.5,47 L -123,47 L -123,52 L -126.5,52 L -126.5,57 L -123,57
 L -123,62 L -126.5,62 L -126.5,67 L -123,67 L -123,72 L -126.5,72
 L -126.5,77 L -123,77 L -123,82 L -126.5,82 L -126.5,87 L -123,87
 L -123,92 L -126.5,92 L -126.5,97 L -123,97 L -123,101.999 L -120,101.999
 L -120,105.5 L -115,105.5 z
M -119.5,12.1217 L -116,12.1217 L -116,17.1217 L -119.5,17.1217 z
M -119.5,52 L -116,52 L -116,57 L -119.5,57 z
M -119.5,91.8783 L -116,91.8783 L -116,96.8783 L -119.5,96.8783 z
M -99.924,98.7476 L -99.9725,98.7404 L -100.02,98.7285 L -100.066,98.7119 L -100.111,98.691 L -100.153,98.6657
 L -100.192,98.6365 L -100.229,98.6036 L -100.262,98.5672 L -100.291,98.5278 L -100.316,98.4857 L -100.337,98.4413
 L -100.353,98.3951 L -100.365,98.3475 L -100.373,98.299 L -100.375,98.25 L -100.375,94.75 L -100.373,94.701
 L -100.365,94.6525 L -100.353,94.6049 L -100.337,94.5587 L -100.316,94.5143 L -100.291,94.4722 L -100.262,94.4328
 L -100.229,94.3964 L -100.192,94.3635 L -100.153,94.3343 L -100.111,94.309 L -100.066,94.2881 L -100.02,94.2715
 L -99.9725,94.2596 L -99.924,94.2524 L -99.875,94.25 L -75.125,94.25 L -75.076,94.2524 L -75.0275,94.2596
 L -74.9799,94.2715 L -74.9337,94.2881 L -74.8893,94.309 L -74.8472,94.3343 L -74.8078,94.3635 L -74.7714,94.3964
 L -74.7385,94.4328 L -74.7093,94.4722 L -74.684,94.5143 L -74.6631,94.5587 L -74.6465,94.6049 L -74.6346,94.6525
 L -74.6274,94.701 L -74.625,94.75 L -74.625,98.25 L -74.6274,98.299 L -74.6346,98.3475 L -74.6465,98.3951
 L -74.6631,98.4413 L -74.684,98.4857 L -74.7093,98.5278 L -74.7385,98.5672 L -74.7714,98.6036 L -74.8078,98.6365
 L -74.8472,98.6657 L -74.8893,98.691 L -74.9337,98.7119 L -74.9799,98.7285 L -75.0275,98.7404 L -75.076,98.7476
 L -75.125,98.75 L -99.875,98.75 z
M -57.5,112.5 L -57.5,108.999 L -52.5,108.999 L -52.5,112.5 L -47.5,112.5 L -47.5,108.999
 L -42.5,108.999 L -42.5,112.5 L -37.5,112.5 L -37.5,108.999 L -32.5,108.999 L -32.5,112.5
 L -27.5,112.5 L -27.5,108.999 L -22.5,108.999 L -22.5,112.5 L -17.5,112.5 L -17.5,108.999
 L -12.5,108.999 L -12.5,112.5 L -7.5,112.5 L -7.5,108.999 L -2.5,108.999 L -2.5,112.5
 L 2.5,112.5 L 2.5,108.999 L 7.5,108.999 L 7.5,112.5 L 12.5,112.5 L 12.5,108.999
 L 17.5,108.999 L 17.5,112.5 L 22.5,112.5 L 22.5,108.999 L 27.5,108.999 L 27.5,112.5
 L 32.5,112.5 L 32.5,108.999 L 37.5,108.999 L 37.5,112.5 L 42.5,112.5 L 42.5,108.999
 L 47.5,108.999 L 47.5,112.5 L 52.5,112.5 L 52.5,108.999 L 57.5,108.999 L 57.5,112.5
 L 59,120.5 L 65,120.5 L 65,106 L 61.5,106 L 61.5,101 L 65,101
 L 65,96 L 61.5,96 L 61.5,91 L 65,91 L 65,86 L 61.5,86
 L 61.5,81 L 65,81 L 65,76 L 61.5,76 L 61.5,71 L 65,71
 L 65,66 L 61.5,66 L 61.5,61 L 65,61 L 65,54.5 L 57.5,54.5
 L 57.5,58 L 52.5,58 L 52.5,54.5 L 47.5,54.5 L 47.5,58 L 42.5,58
 L 42.5,54.5 L 37.5,54.5 L 37.5,58 L 32.5,58 L 32.5,54.5 L 27.5,54.5
 L 27.5,58 L 22.5,58 L 22.5,54.5 L 17.5,54.5 L 17.5,58 L 12.5,58
 L 12.5,54.5 L 7.5,54.5 L 7.5,58 L 2.5,58 L 2.5,54.5 L -2.5,54.5
 L -2.5,58 L -7.5,58 L -7.5,54.5 L -12.5,54.5 L -12.5,58 L -17.5,58
 L -17.5,54.5 L -22.5,54.5 L -22.5,58 L -27.5,58 L -27.5,54.5 L -32.5,54.5
 L -32.5,58 L -37.5,58 L -37.5,54.5 L -42.5,54.5 L -42.5,58 L -47.5,58
 L -47.5,54.5 L -52.5,54.5 L -52.5,58 L -57.5,58 L -57.5,54.5 L -65,54.5
 L -65,61 L -61.499,61 L -61.499,66 L -65,66 L -65,71 L -61.499,71
 L -61.499,76 L -65,76 L -65,81 L -61.499,81 L -61.499,86 L -65,86
 L -65,91 L -61.499,91 L -61.499,96 L -65,96 L -65,101 L -61.499,101
 L -61.499,106 L -65,106 L -65,120.5 L -59,120.5 z
M 88.5,54.5 L 68.5,54.5 L 68.5,64.5 L 88.5,64.5 z
" stroke="#000000" fill="none" stroke-width="0.35"/>
</svg>
